<?xml version="1.0" encoding="utf-8"?>
<!-- Generator: Adobe Illustrator 23.1.0, SVG Export Plug-In . SVG Version: 6.00 Build 0)  -->
<svg version="1.1" id="Слой_1" xmlns="http://www.w3.org/2000/svg" xmlns:xlink="http://www.w3.org/1999/xlink" x="0px" y="0px"
	 viewBox="0 0 109 96" style="enable-background:new 0 0 109 96;" xml:space="preserve">
<path d="M48.3-0.1c-26.5,0-48,21.5-48,48s21.5,48,48,48h42.5c1.7,0,3-1.3,3-3s-1.3-3-3-3H48.3c-23.2,0-42-18.8-42-42s18.8-42,42-42
	s42,18.8,42,42c0,12.6-5.6,24.4-15.3,32.4c-1.3,1.1-1.5,2.9-0.4,4.2s3,1.5,4.2,0.4c11.1-9.2,17.5-22.7,17.5-37
	C96.3,21.4,74.8-0.1,48.3-0.1z M48.3,12.3c-6.6,0-12,5.4-12,12c0,6.7,5.6,12.2,12.3,12c6.3-0.2,11.5-5.4,11.7-11.7
	C60.5,17.8,55,12.3,48.3,12.3z M24.7,35.9c-6.6,0-12,5.4-12,12s5.4,12,12,12s12-5.4,12-12S31.3,35.9,24.7,35.9z M71.9,35.9
	c-6.6,0-12,5.4-12,12s5.4,12,12,12s12-5.4,12-12S78.5,35.9,71.9,35.9z M48.3,44.9c-1.7,0-3,1.3-3,3s1.3,3,3,3s3-1.3,3-3
	S50,44.9,48.3,44.9z M48.3,59.5c-6.6,0-12,5.4-12,12s5.4,12,12,12s12-5.4,12-12S54.9,59.5,48.3,59.5z M105.8,89.9c-1.7,0-3,1.3-3,3
	s1.3,3,3,3s3-1.3,3-3S107.5,89.9,105.8,89.9z"/>
</svg>
