<svg xmlns="http://www.w3.org/2000/svg" display="none">
<symbol id="fillStrip-logo" viewBox="0 0 240 68" style="enable-background:new 0 0 240 68;">
	<g>
		<g>
			<path class="st0" d="M28.3,23.1l4.6-0.3c-1.1-0.2-2-0.7-2.9-1.3L28.3,23.1z"/>
			<path class="st0" d="M31.1,8.1L31.1,8.1l-11.8,2.1h-0.1c3.6,0.2,6.4,3.2,6.4,6.8c0,2.1-0.9,3.9-2.3,5.1l0.4,0.5l4-3.6
			c-0.6-1.1-1-2.5-1-3.9C26.7,12,28.5,9.3,31.1,8.1z"/>
			<path class="st0" d="M29.9,18.5c0,0.8,0.6,1.4,1.4,1.4s1.4-0.6,1.4-1.4c0-0.8-0.6-1.4-1.4-1.4S29.9,17.8,29.9,18.5z"/>
			<path class="st0" d="M29.9,13.8c-0.8,0-1.4,0.6-1.4,1.4c0,0.8,0.6,1.4,1.4,1.4c0.8,0,1.4-0.6,1.4-1.4
			C31.3,14.4,30.7,13.8,29.9,13.8z"/>
			<ellipse class="st0" cx="31.3" cy="12" rx="1.4" ry="1.4"/>
			<path class="st0" d="M37.6,15.2c0,0.8,0.6,1.4,1.4,1.4c0.8,0,1.4-0.6,1.4-1.4c0-0.8-0.6-1.4-1.4-1.4
			C38.2,13.8,37.6,14.4,37.6,15.2z"/>
			<path class="st0" d="M37.6,13.4c0.8,0,1.4-0.6,1.4-1.4s-0.6-1.4-1.4-1.4c-0.8,0-1.4,0.6-1.4,1.4C36.2,12.7,36.9,13.4,37.6,13.4z"
			/>
			<path class="st0" d="M16.1,18.7c-0.7,0-1.2,0.6-1.2,1.2c0,0.7,0.5,1.2,1.2,1.2c0.7,0,1.2-0.6,1.2-1.2S16.7,18.7,16.1,18.7z"/>
			<path class="st0" d="M34.4,11.9c0.8,0,1.4-0.6,1.4-1.4c0-0.8-0.6-1.4-1.4-1.4c-0.8,0-1.4,0.6-1.4,1.4
			C33.1,11.3,33.7,11.9,34.4,11.9z"/>
			<path class="st0" d="M37.6,19.9c0.8,0,1.4-0.6,1.4-1.4c0-0.8-0.6-1.4-1.4-1.4c-0.8,0-1.4,0.6-1.4,1.4
			C36.2,19.3,36.9,19.9,37.6,19.9z"/>
			<path class="st0" d="M34.4,21.2c0.8,0,1.4-0.6,1.4-1.4s-0.6-1.4-1.4-1.4c-0.8,0-1.4,0.6-1.4,1.4S33.7,21.2,34.4,21.2z"/>
			<path class="st0" d="M16,17c0-0.7-0.5-1.2-1.2-1.2c-0.7,0-1.2,0.6-1.2,1.2c0,0.7,0.5,1.2,1.2,1.2C15.5,18.2,16,17.7,16,17z"/>
			<path class="st0" d="M21.6,15.4c0.7,0,1.2-0.6,1.2-1.2c0-0.7-0.5-1.2-1.2-1.2c-0.7,0-1.2,0.6-1.2,1.2
			C20.4,14.9,20.9,15.4,21.6,15.4z"/>
			<path class="st0" d="M24,17c0-0.7-0.5-1.2-1.2-1.2c-0.7,0-1.2,0.6-1.2,1.2c0,0.7,0.6,1.2,1.2,1.2C23.5,18.2,24,17.7,24,17z"/>
			<path class="st0" d="M51.8,41V27l57.7-26.8l-109.8,0v68h109.6h0.6L51.8,41z M9,31v3.8l-3.4,0.8V31v-4.7L9,27.1V31z M11.3,38H9.4
			V26.3h1.9V38z M41.9,24.3v17.7H11.8V24.3h10l0.1-0.1l-0.5-0.6l-1.6,0.1l0.1,0c-0.3,0-0.6,0.1-1,0.1c-3.7,0-6.8-3.1-6.8-6.9
			c0-3.5,2.5-6.3,5.8-6.8h-0.1l14.9-2.7l0,0c0.6-0.1,1.2-0.2,1.8-0.2c4.3,0,7.7,3.5,7.7,7.8c0,4.3-3.5,7.8-7.7,7.8L28,23.4l-1.1,1
			H41.9z M43.7,37.9h-1.3v-8.4h1.3V37.9z M50.6,33.6v6.7l-6.3-2.2v-4.4v-4.4l6.3-2.2V33.6z"/>
			<path class="st0" d="M18.8,19.8c-0.7,0-1.2,0.6-1.2,1.2c0,0.7,0.5,1.2,1.2,1.2S20,21.7,20,21C20,20.4,19.5,19.8,18.8,19.8z"/>
			<path class="st0" d="M16.1,13c-0.7,0-1.2,0.6-1.2,1.2c0,0.7,0.5,1.2,1.2,1.2c0.7,0,1.2-0.6,1.2-1.2C17.3,13.5,16.7,13,16.1,13z"/>
			<ellipse class="st0" cx="21.6" cy="20" rx="1.2" ry="1.2"/>
			<path class="st0" d="M18.8,11.7c-0.7,0-1.2,0.6-1.2,1.2s0.5,1.2,1.2,1.2S20,13.6,20,13S19.5,11.7,18.8,11.7z"/>
		</g>
		<g>
			<path class="st0" d="M114.9,45.3h-0.7c0-0.2-0.1-0.4-0.2-0.6c-0.1-0.2-0.2-0.3-0.4-0.4c-0.2-0.1-0.3-0.2-0.5-0.3
			c-0.2-0.1-0.4-0.1-0.6-0.1c-0.4,0-0.7,0.1-1,0.3c-0.3,0.2-0.5,0.5-0.7,0.8c-0.2,0.4-0.3,0.8-0.3,1.4c0,0.5,0.1,1,0.3,1.4
			c0.2,0.4,0.4,0.6,0.7,0.8c0.3,0.2,0.6,0.3,1,0.3c0.2,0,0.4,0,0.6-0.1c0.2-0.1,0.4-0.1,0.5-0.3c0.2-0.1,0.3-0.2,0.4-0.4
			c0.1-0.2,0.2-0.4,0.2-0.6h0.7c-0.1,0.3-0.2,0.6-0.3,0.8c-0.1,0.2-0.3,0.5-0.6,0.6c-0.2,0.2-0.5,0.3-0.7,0.4
			c-0.3,0.1-0.6,0.1-0.9,0.1c-0.5,0-1-0.1-1.4-0.4c-0.4-0.3-0.7-0.6-1-1.1c-0.2-0.5-0.4-1-0.4-1.7c0-0.7,0.1-1.2,0.4-1.7
			c0.2-0.5,0.6-0.8,1-1.1s0.9-0.4,1.4-0.4c0.3,0,0.6,0,0.9,0.1c0.3,0.1,0.5,0.2,0.7,0.4c0.2,0.2,0.4,0.4,0.6,0.6
			C114.7,44.7,114.8,45,114.9,45.3z"/>
			<path class="st0" d="M120.4,49.7c-0.3,0-0.6-0.1-0.8-0.2c-0.2-0.1-0.4-0.3-0.6-0.5c-0.1-0.2-0.2-0.5-0.2-0.8
			c0-0.3,0.1-0.5,0.2-0.6c0.1-0.2,0.2-0.3,0.4-0.4c0.2-0.1,0.4-0.2,0.6-0.2c0.2,0,0.4-0.1,0.6-0.1c0.3,0,0.5-0.1,0.7-0.1
			c0.2,0,0.3-0.1,0.4-0.1c0.1,0,0.1-0.1,0.1-0.2v0c0-0.3-0.1-0.5-0.2-0.7c-0.2-0.2-0.4-0.2-0.7-0.2c-0.3,0-0.6,0.1-0.8,0.2
			c-0.2,0.1-0.3,0.3-0.4,0.5l-0.7-0.2c0.1-0.3,0.3-0.5,0.5-0.7c0.2-0.2,0.4-0.3,0.7-0.3s0.5-0.1,0.7-0.1c0.1,0,0.3,0,0.5,0.1
			c0.2,0,0.4,0.1,0.6,0.2c0.2,0.1,0.3,0.3,0.5,0.5c0.1,0.2,0.2,0.5,0.2,0.9v3.1h-0.7v-0.6h0c0,0.1-0.1,0.2-0.2,0.3
			c-0.1,0.1-0.3,0.2-0.4,0.3C120.9,49.6,120.6,49.7,120.4,49.7z M120.5,49c0.3,0,0.5-0.1,0.7-0.2c0.2-0.1,0.3-0.3,0.4-0.4
			c0.1-0.2,0.1-0.4,0.1-0.6v-0.7c0,0-0.1,0.1-0.2,0.1c-0.1,0-0.2,0.1-0.4,0.1c-0.1,0-0.3,0-0.4,0.1c-0.1,0-0.2,0-0.3,0
			c-0.2,0-0.4,0.1-0.5,0.1c-0.2,0.1-0.3,0.1-0.4,0.2c-0.1,0.1-0.1,0.2-0.1,0.4c0,0.2,0.1,0.4,0.3,0.6C120,49,120.2,49,120.5,49z"/>
			<path class="st0" d="M128.8,44.9v0.6h-2.4v-0.6H128.8z M127.1,43.8h0.7v4.4c0,0.2,0,0.4,0.1,0.5c0.1,0.1,0.1,0.2,0.2,0.2
			c0.1,0,0.2,0,0.3,0c0.1,0,0.1,0,0.2,0c0.1,0,0.1,0,0.1,0l0.1,0.6c0,0-0.1,0-0.2,0.1c-0.1,0-0.2,0-0.3,0c-0.2,0-0.4,0-0.6-0.1
			c-0.2-0.1-0.4-0.2-0.5-0.4c-0.1-0.2-0.2-0.4-0.2-0.7V43.8z"/>
			<path class="st0" d="M134.7,49.7c-0.4,0-0.8-0.1-1.1-0.3c-0.3-0.2-0.6-0.5-0.7-0.8c-0.2-0.4-0.3-0.8-0.3-1.2
			c0-0.5,0.1-0.9,0.3-1.2c0.2-0.4,0.4-0.6,0.7-0.8c0.3-0.2,0.7-0.3,1.1-0.3c0.3,0,0.6,0.1,0.9,0.2c0.3,0.1,0.5,0.3,0.6,0.5
			c0.2,0.2,0.3,0.5,0.3,0.8h-0.7c-0.1-0.2-0.2-0.4-0.4-0.6c-0.2-0.2-0.4-0.2-0.7-0.2c-0.3,0-0.5,0.1-0.7,0.2
			c-0.2,0.1-0.4,0.3-0.5,0.6c-0.1,0.3-0.2,0.6-0.2,0.9c0,0.4,0.1,0.7,0.2,0.9c0.1,0.3,0.3,0.5,0.5,0.6c0.2,0.1,0.5,0.2,0.7,0.2
			c0.2,0,0.4,0,0.5-0.1c0.2-0.1,0.3-0.2,0.4-0.3c0.1-0.1,0.2-0.3,0.2-0.4h0.7c0,0.3-0.1,0.5-0.3,0.7c-0.2,0.2-0.4,0.4-0.6,0.5
			C135.4,49.6,135.1,49.7,134.7,49.7z"/>
			<path class="st0" d="M141.3,46.8v2.8h-0.7v-6.2h0.7v2.3h0.1c0.1-0.2,0.3-0.4,0.5-0.6c0.2-0.1,0.5-0.2,0.9-0.2
			c0.3,0,0.6,0.1,0.8,0.2s0.4,0.3,0.6,0.6c0.1,0.3,0.2,0.6,0.2,1v2.9h-0.7v-2.9c0-0.4-0.1-0.7-0.3-0.9c-0.2-0.2-0.5-0.3-0.8-0.3
			c-0.2,0-0.4,0-0.6,0.1c-0.2,0.1-0.3,0.2-0.4,0.4C141.4,46.3,141.3,46.5,141.3,46.8z"/>
			<path class="st0" d="M156,44.9v0.6h-2.4v-0.6H156z M154.3,43.8h0.7v4.4c0,0.2,0,0.4,0.1,0.5c0.1,0.1,0.1,0.2,0.2,0.2
			c0.1,0,0.2,0,0.3,0c0.1,0,0.1,0,0.2,0c0,0,0.1,0,0.1,0l0.1,0.6c0,0-0.1,0-0.2,0.1c-0.1,0-0.2,0-0.3,0c-0.2,0-0.4,0-0.6-0.1
			c-0.2-0.1-0.4-0.2-0.5-0.4c-0.1-0.2-0.2-0.4-0.2-0.7V43.8z"/>
			<path class="st0" d="M160.9,46.8v2.8h-0.7v-6.2h0.7v2.3h0.1c0.1-0.2,0.3-0.4,0.5-0.6c0.2-0.1,0.5-0.2,0.9-0.2
			c0.3,0,0.6,0.1,0.8,0.2s0.4,0.3,0.6,0.6c0.1,0.3,0.2,0.6,0.2,1v2.9h-0.7v-2.9c0-0.4-0.1-0.7-0.3-0.9c-0.2-0.2-0.5-0.3-0.8-0.3
			c-0.2,0-0.4,0-0.6,0.1c-0.2,0.1-0.3,0.2-0.4,0.4C161,46.3,160.9,46.5,160.9,46.8z"/>
			<path class="st0" d="M170.2,49.7c-0.4,0-0.8-0.1-1.2-0.3c-0.3-0.2-0.6-0.5-0.7-0.8c-0.2-0.4-0.3-0.8-0.3-1.2s0.1-0.9,0.3-1.3
			c0.2-0.4,0.4-0.6,0.7-0.9c0.3-0.2,0.7-0.3,1.1-0.3c0.2,0,0.5,0,0.7,0.1c0.2,0.1,0.4,0.2,0.6,0.4c0.2,0.2,0.3,0.4,0.5,0.7
			c0.1,0.3,0.2,0.7,0.2,1.1v0.3h-3.6v-0.6h2.8c0-0.3-0.1-0.5-0.2-0.7c-0.1-0.2-0.3-0.4-0.4-0.5c-0.2-0.1-0.4-0.2-0.7-0.2
			c-0.3,0-0.5,0.1-0.7,0.2c-0.2,0.1-0.4,0.3-0.5,0.5c-0.1,0.2-0.2,0.5-0.2,0.7v0.4c0,0.3,0.1,0.6,0.2,0.9c0.1,0.2,0.3,0.4,0.5,0.6
			c0.2,0.1,0.5,0.2,0.8,0.2c0.2,0,0.4,0,0.5-0.1c0.2-0.1,0.3-0.1,0.4-0.2c0.1-0.1,0.2-0.2,0.3-0.4l0.7,0.2c-0.1,0.2-0.2,0.4-0.4,0.6
			c-0.2,0.2-0.4,0.3-0.6,0.4C170.7,49.6,170.5,49.7,170.2,49.7z"/>
			<path class="st0" d="M181.5,49.6v-4.6h0.7v0.7h0.1c0.1-0.2,0.3-0.4,0.5-0.6c0.2-0.1,0.5-0.2,0.8-0.2c0.3,0,0.6,0.1,0.8,0.2
			c0.2,0.1,0.4,0.3,0.5,0.6h0c0.1-0.2,0.3-0.4,0.5-0.6c0.2-0.1,0.5-0.2,0.9-0.2c0.4,0,0.8,0.1,1,0.4c0.3,0.3,0.4,0.7,0.4,1.2v3.1
			h-0.7v-3.1c0-0.3-0.1-0.6-0.3-0.7c-0.2-0.1-0.4-0.2-0.7-0.2c-0.3,0-0.6,0.1-0.8,0.3c-0.2,0.2-0.3,0.4-0.3,0.7v3h-0.7v-3.2
			c0-0.3-0.1-0.5-0.3-0.6c-0.2-0.2-0.4-0.2-0.7-0.2c-0.2,0-0.4,0-0.5,0.1c-0.2,0.1-0.3,0.2-0.4,0.4c-0.1,0.2-0.1,0.4-0.1,0.6v2.9
			H181.5z"/>
			<path class="st0" d="M193.8,49.7c-0.4,0-0.8-0.1-1.1-0.3c-0.3-0.2-0.6-0.5-0.7-0.8c-0.2-0.4-0.3-0.8-0.3-1.3
			c0-0.5,0.1-0.9,0.3-1.3c0.2-0.4,0.4-0.6,0.7-0.8c0.3-0.2,0.7-0.3,1.1-0.3c0.4,0,0.8,0.1,1.1,0.3c0.3,0.2,0.6,0.5,0.7,0.8
			c0.2,0.4,0.3,0.8,0.3,1.3c0,0.5-0.1,0.9-0.3,1.3c-0.2,0.4-0.4,0.6-0.7,0.8C194.6,49.6,194.2,49.7,193.8,49.7z M193.8,49
			c0.3,0,0.6-0.1,0.8-0.2c0.2-0.2,0.4-0.4,0.5-0.6c0.1-0.3,0.1-0.6,0.1-0.9c0-0.3,0-0.6-0.1-0.9s-0.3-0.5-0.5-0.6
			c-0.2-0.2-0.5-0.2-0.8-0.2s-0.6,0.1-0.8,0.2c-0.2,0.2-0.4,0.4-0.5,0.6s-0.1,0.6-0.1,0.9c0,0.3,0,0.6,0.1,0.9
			c0.1,0.3,0.3,0.5,0.5,0.6C193.2,48.9,193.5,49,193.8,49z"/>
			<path class="st0" d="M200,49.6v-4.6h0.7v0.7h0.1c0.1-0.2,0.3-0.4,0.5-0.6c0.2-0.1,0.5-0.2,0.8-0.2c0.3,0,0.6,0.1,0.8,0.2
			c0.2,0.1,0.4,0.3,0.5,0.6h0c0.1-0.2,0.3-0.4,0.5-0.6c0.2-0.1,0.5-0.2,0.9-0.2c0.4,0,0.8,0.1,1,0.4c0.3,0.3,0.4,0.7,0.4,1.2v3.1
			h-0.7v-3.1c0-0.3-0.1-0.6-0.3-0.7c-0.2-0.1-0.4-0.2-0.7-0.2c-0.3,0-0.6,0.1-0.8,0.3c-0.2,0.2-0.3,0.4-0.3,0.7v3h-0.7v-3.2
			c0-0.3-0.1-0.5-0.3-0.6c-0.2-0.2-0.4-0.2-0.7-0.2c-0.2,0-0.4,0-0.5,0.1c-0.2,0.1-0.3,0.2-0.4,0.4c-0.1,0.2-0.1,0.4-0.1,0.6v2.9
			H200z"/>
			<path class="st0" d="M212.3,49.7c-0.4,0-0.8-0.1-1.2-0.3c-0.3-0.2-0.6-0.5-0.7-0.8c-0.2-0.4-0.3-0.8-0.3-1.2s0.1-0.9,0.3-1.3
			c0.2-0.4,0.4-0.6,0.7-0.9c0.3-0.2,0.7-0.3,1.1-0.3c0.2,0,0.5,0,0.7,0.1c0.2,0.1,0.4,0.2,0.6,0.4c0.2,0.2,0.3,0.4,0.5,0.7
			c0.1,0.3,0.2,0.7,0.2,1.1v0.3h-3.6v-0.6h2.8c0-0.3-0.1-0.5-0.2-0.7c-0.1-0.2-0.3-0.4-0.4-0.5c-0.2-0.1-0.4-0.2-0.7-0.2
			c-0.3,0-0.5,0.1-0.7,0.2c-0.2,0.1-0.4,0.3-0.5,0.5c-0.1,0.2-0.2,0.5-0.2,0.7v0.4c0,0.3,0.1,0.6,0.2,0.9c0.1,0.2,0.3,0.4,0.5,0.6
			c0.2,0.1,0.5,0.2,0.8,0.2c0.2,0,0.4,0,0.5-0.1c0.2-0.1,0.3-0.1,0.4-0.2c0.1-0.1,0.2-0.2,0.3-0.4l0.7,0.2c-0.1,0.2-0.2,0.4-0.4,0.6
			c-0.2,0.2-0.4,0.3-0.6,0.4C212.9,49.6,212.6,49.7,212.3,49.7z"/>
			<path class="st0" d="M219,46.8v2.8h-0.7v-4.6h0.7v0.7h0.1c0.1-0.2,0.3-0.4,0.5-0.6c0.2-0.1,0.5-0.2,0.9-0.2c0.3,0,0.6,0.1,0.8,0.2
			c0.2,0.1,0.4,0.3,0.6,0.6c0.1,0.3,0.2,0.6,0.2,1v2.9h-0.7v-2.9c0-0.4-0.1-0.6-0.3-0.9c-0.2-0.2-0.4-0.3-0.8-0.3
			c-0.2,0-0.4,0-0.6,0.1c-0.2,0.1-0.3,0.2-0.4,0.4C219.1,46.3,219,46.5,219,46.8z"/>
			<path class="st0" d="M228.3,44.9v0.6h-2.4v-0.6H228.3z M226.6,43.8h0.7v4.4c0,0.2,0,0.4,0.1,0.5c0.1,0.1,0.1,0.2,0.2,0.2
			c0.1,0,0.2,0,0.3,0c0.1,0,0.1,0,0.2,0c0,0,0.1,0,0.1,0l0.1,0.6c0,0-0.1,0-0.2,0.1c-0.1,0-0.2,0-0.3,0c-0.2,0-0.4,0-0.6-0.1
			c-0.2-0.1-0.4-0.2-0.5-0.4c-0.1-0.2-0.2-0.4-0.2-0.7V43.8z"/>
			<path class="st0" d="M235.6,46l-0.6,0.2c0-0.1-0.1-0.2-0.2-0.3c-0.1-0.1-0.2-0.2-0.3-0.3c-0.1-0.1-0.3-0.1-0.5-0.1
			c-0.3,0-0.5,0.1-0.7,0.2c-0.2,0.1-0.3,0.3-0.3,0.5c0,0.2,0.1,0.3,0.2,0.4c0.1,0.1,0.3,0.2,0.6,0.3l0.7,0.2
			c0.4,0.1,0.7,0.3,0.9,0.5c0.2,0.2,0.3,0.5,0.3,0.8c0,0.3-0.1,0.5-0.2,0.7c-0.2,0.2-0.4,0.4-0.6,0.5c-0.3,0.1-0.6,0.2-0.9,0.2
			c-0.5,0-0.9-0.1-1.2-0.3s-0.5-0.5-0.6-0.9l0.7-0.2c0.1,0.3,0.2,0.4,0.4,0.6c0.2,0.1,0.4,0.2,0.7,0.2c0.3,0,0.6-0.1,0.8-0.2
			c0.2-0.1,0.3-0.3,0.3-0.5c0-0.2-0.1-0.3-0.2-0.4c-0.1-0.1-0.3-0.2-0.5-0.2l-0.8-0.2c-0.4-0.1-0.7-0.3-0.9-0.5
			c-0.2-0.2-0.3-0.5-0.3-0.8c0-0.3,0.1-0.5,0.2-0.7c0.1-0.2,0.3-0.4,0.6-0.5c0.3-0.1,0.5-0.2,0.9-0.2c0.5,0,0.8,0.1,1.1,0.3
			C235.3,45.4,235.5,45.6,235.6,46z"/>
			<polygon class="st0" points="122.6,21.3 122.6,19.1 110.3,19.1 110.3,36.7 112.8,36.7 112.8,29.6 121.6,29.6 121.6,27.4
			112.8,27.4 112.8,21.3 		"/>
			<path class="st0" d="M126.7,17.7c-0.5,0-0.9,0.2-1.2,0.5c-0.3,0.3-0.5,0.7-0.5,1.1c0,0.4,0.2,0.8,0.5,1.1c0.3,0.3,0.7,0.5,1.2,0.5
			c0.5,0,0.9-0.2,1.2-0.5c0.3-0.3,0.5-0.7,0.5-1.1c0-0.4-0.2-0.8-0.5-1.1C127.6,17.8,127.2,17.7,126.7,17.7z"/>
			<rect x="125.5" y="23.4" class="st0" width="2.4" height="13.3"/>
			<rect x="132.5" y="18.1" class="st0" width="2.4" height="18.7"/>
			<path class="st0" d="M155.9,23.3c-1.1,0-2.1,0.2-3,0.7c-0.9,0.4-1.6,1-2.1,1.8c-0.4-0.8-1-1.4-1.8-1.8c-0.8-0.4-1.7-0.6-2.7-0.6
			c-1,0-1.9,0.2-2.7,0.5c-0.8,0.4-1.4,0.9-1.9,1.6v-2h-2.3v13.3h2.4v-6.9c0-1.4,0.4-2.5,1.1-3.3c0.7-0.8,1.7-1.1,2.9-1.1
			c1.1,0,1.9,0.3,2.5,1c0.6,0.7,0.9,1.6,0.9,2.9v7.4h2.4v-6.9c0-1.4,0.4-2.5,1.1-3.3c0.7-0.8,1.7-1.1,2.9-1.1c1.1,0,1.9,0.3,2.5,1
			c0.6,0.7,0.9,1.6,0.9,2.9v7.4h2.4v-7.7c0-1.9-0.5-3.4-1.5-4.3C158.9,23.8,157.5,23.3,155.9,23.3z"/>
			<path class="st0" d="M174.9,27.8c-0.8-0.3-1.9-0.6-3.2-1c-1-0.2-1.8-0.5-2.4-0.7c-0.6-0.2-1.1-0.5-1.5-0.9
			c-0.4-0.4-0.6-0.9-0.6-1.5c0-0.8,0.4-1.5,1.1-2c0.7-0.5,1.8-0.8,3.2-0.8c0.8,0,1.6,0.1,2.4,0.4c0.8,0.2,1.6,0.6,2.3,1.1l0.8-2
			c-0.7-0.5-1.6-0.9-2.6-1.2c-1-0.3-2-0.4-3-0.4c-1.5,0-2.7,0.2-3.7,0.7c-1,0.5-1.7,1.1-2.2,1.8s-0.7,1.6-0.7,2.5
			c0,1.1,0.3,2,0.9,2.7c0.6,0.7,1.3,1.2,2.1,1.5s1.9,0.6,3.2,1c1,0.3,1.9,0.5,2.4,0.7c0.6,0.2,1.1,0.5,1.4,0.9
			c0.4,0.4,0.6,0.9,0.6,1.5c0,0.8-0.4,1.5-1.1,2c-0.7,0.5-1.8,0.7-3.2,0.7c-1.1,0-2.2-0.2-3.2-0.6c-1-0.4-1.9-0.9-2.6-1.5l-0.9,2
			c0.7,0.7,1.7,1.2,2.9,1.6c1.2,0.4,2.5,0.6,3.8,0.6c1.5,0,2.7-0.2,3.7-0.7c1-0.4,1.8-1.1,2.3-1.8c0.5-0.8,0.8-1.6,0.8-2.5
			c0-1.1-0.3-2-0.9-2.6C176.4,28.6,175.7,28.1,174.9,27.8z"/>
			<path class="st0" d="M185.9,34.8c-0.7,0-1.2-0.2-1.5-0.6c-0.4-0.4-0.5-0.9-0.5-1.7v-7.2h3.8v-2h-3.8v-2.9h-2.4v2.9h-2.2v2h2.2v7.3
			c0,1.3,0.4,2.4,1.1,3.1c0.7,0.7,1.8,1.1,3.1,1.1c0.6,0,1.1-0.1,1.6-0.2s0.9-0.4,1.3-0.7l-0.7-1.7
			C187.3,34.6,186.7,34.8,185.9,34.8z"/>
			<path class="st0" d="M193.7,25.6v-2.2h-2.3v13.3h2.4v-6.6c0-1.4,0.4-2.6,1.1-3.3c0.7-0.8,1.8-1.2,3-1.2c0.2,0,0.4,0,0.6,0v-2.3
			c-1.2,0-2.2,0.2-3,0.6C194.7,24.3,194.1,24.9,193.7,25.6z"/>
			<rect x="201.4" y="23.4" class="st0" width="2.4" height="13.3"/>
			<path class="st0" d="M218.8,24.1c-1-0.6-2.2-0.9-3.4-0.9c-1,0-1.9,0.2-2.7,0.6c-0.8,0.4-1.5,0.9-2,1.7v-2.1h-2.3v18.2h2.4v-6.9
			c0.6,0.7,1.2,1.2,2,1.6c0.8,0.4,1.7,0.6,2.6,0.6c1.3,0,2.4-0.3,3.4-0.9c1-0.6,1.8-1.4,2.4-2.4c0.6-1,0.9-2.2,0.9-3.6
			c0-1.3-0.3-2.5-0.9-3.6C220.6,25.5,219.8,24.7,218.8,24.1z M219,32.5c-0.4,0.7-0.9,1.3-1.6,1.7c-0.7,0.4-1.4,0.6-2.3,0.6
			c-0.8,0-1.6-0.2-2.3-0.6c-0.7-0.4-1.2-1-1.6-1.7c-0.4-0.7-0.6-1.5-0.6-2.5c0-0.9,0.2-1.7,0.6-2.4c0.4-0.7,0.9-1.3,1.6-1.7
			c0.7-0.4,1.4-0.6,2.3-0.6c0.8,0,1.6,0.2,2.3,0.6c0.7,0.4,1.2,0.9,1.6,1.7c0.4,0.7,0.6,1.5,0.6,2.5C219.6,31,219.4,31.8,219,32.5z"
			/>
			<path class="st0" d="M202.7,17.4c-1.1,0-2,0.9-2,2s0.9,2,2,2s2-0.9,2-2S203.8,17.4,202.7,17.4z M201.1,19.4c0-0.2,0.2-0.4,0.4-0.4
			c0.2,0,0.4,0.2,0.4,0.4s-0.2,0.4-0.4,0.4C201.3,19.8,201.1,19.6,201.1,19.4z M202.1,20.6c-0.1,0.1-0.4,0.1-0.5,0
			c-0.1-0.1-0.1-0.4,0-0.5c0.1-0.1,0.4-0.1,0.5,0C202.2,20.2,202.2,20.5,202.1,20.6z M202.1,18.7c-0.1,0.1-0.4,0.1-0.5,0
			c-0.1-0.1-0.1-0.4,0-0.5s0.4-0.1,0.5,0C202.3,18.3,202.3,18.6,202.1,18.7z M202.7,21.1c-0.2,0-0.4-0.2-0.4-0.4
			c0-0.2,0.2-0.4,0.4-0.4c0.2,0,0.4,0.2,0.4,0.4C203.1,21,202.9,21.1,202.7,21.1z M202.7,18.5c-0.2,0-0.4-0.2-0.4-0.4
			c0-0.2,0.2-0.4,0.4-0.4c0.2,0,0.4,0.2,0.4,0.4C203.1,18.3,202.9,18.5,202.7,18.5z M203.4,18.2c0.1-0.1,0.4-0.1,0.5,0
			c0.1,0.1,0.1,0.4,0,0.5c-0.1,0.1-0.4,0.1-0.5,0C203.3,18.6,203.3,18.3,203.4,18.2z M204,20.6c-0.1,0.1-0.4,0.1-0.5,0
			s-0.1-0.4,0-0.5c0.1-0.1,0.4-0.1,0.5,0C204.2,20.2,204.2,20.5,204,20.6z M204.5,19.4c0,0.2-0.2,0.4-0.4,0.4
			c-0.2,0-0.4-0.2-0.4-0.4s0.2-0.4,0.4-0.4C204.3,19,204.5,19.2,204.5,19.4z"/>
		</g>
	</g>
</symbol>
</svg>