<?xml version="1.0" encoding="utf-8"?>
<!-- Generator: Adobe Illustrator 23.1.0, SVG Export Plug-In . SVG Version: 6.00 Build 0)  -->
<svg version="1.1" id="Слой_1" xmlns="http://www.w3.org/2000/svg" xmlns:xlink="http://www.w3.org/1999/xlink" x="0px" y="0px"
	 viewBox="0 0 128 128" style="enable-background:new 0 0 128 128;" xml:space="preserve">
<path d="M64,1c-5.5,0-10,4.5-10,10s4.5,10,10,10s10-4.5,10-10S69.5,1,64,1z M64,7c2.2,0,4,1.8,4,4s-1.8,4-4,4c-2.2,0-4-1.8-4-4
	S61.8,7,64,7z M69.7,25c-1,0.1-2,0.7-2.4,1.7c-0.8,1.8,0.2,3.8,2,4.2l7.6,1.9c1,0.3,1.7,1.2,1.5,2.3l-3,17.9H72h-5V40.2
	c0-1.6-1.2-3.1-2.8-3.2c-1.7-0.1-3.2,1.3-3.2,3v71H44c-1.7,0-3,1.3-3,3v7h-4.8c-1.7,0-3.1,1.2-3.2,2.8c-0.1,1.7,1.3,3.2,3,3.2h8
	c1.7,0,3-1.3,3-3v-7h7h7v4h-4.8c-1.6,0-3.1,1.2-3.2,2.8c-0.1,1.7,1.3,3.2,3,3.2h38c1.7,0,3.1-1.4,3-3.2c-0.1-1.6-1.5-2.8-3.2-2.8H87
	v-7c0-1.7-1.3-3-3-3h-5.2c-4.7,0-8.5-4-7.9-8.7v-0.1L74.7,59H78c1.5,0,2.7-1.1,3-2.5L84.2,36c0.7-4.1-1.9-8-6-9l-7.4-1.9
	C70.5,25,70.1,25,69.7,25z M57.9,25c-0.2,0-0.4,0-0.6,0.1L49.7,27c-4.1,1-6.6,4.9-6,9L47,56.5c0.2,1.5,1.5,2.5,3,2.5h4
	c1.7,0,3-1.3,3-3s-1.3-3-3-3h-1.5l-2.9-17.9c-0.2-1,0.5-2,1.5-2.3l7.6-1.9c1.6-0.4,2.6-2,2.2-3.6C60.6,25.9,59.3,25,57.9,25z
	 M23.1,29.5c-1,0.1-1.9,0.6-2.4,1.5c-0.8,1.4-0.3,3.3,1.1,4.1l8.7,5c0.5,0.3,1,0.4,1.5,0.4c1,0,2-0.5,2.6-1.5
	c0.8-1.4,0.3-3.3-1.1-4.1l-8.7-5C24.3,29.6,23.7,29.5,23.1,29.5z M104.9,29.5c-0.6,0-1.2,0.1-1.7,0.4l-8.7,5
	c-1.4,0.8-1.9,2.7-1.1,4.1c0.6,1,1.6,1.5,2.6,1.5c0.5,0,1-0.1,1.5-0.4l8.7-5c1.4-0.8,1.9-2.7,1.1-4.1
	C106.8,30.1,105.9,29.6,104.9,29.5z M124.1,52.8c-0.2,0-0.4,0-0.6,0.1c-0.2,0-0.4,0.1-0.6,0.2s-0.3,0.2-0.5,0.3s-0.3,0.2-0.5,0.4
	l-0.4,0.4c-0.1,0.2-0.2,0.3-0.3,0.5s-0.1,0.4-0.2,0.6c0,0.2-0.1,0.4-0.1,0.6s0,0.4,0.1,0.6c0.1,0.3,0.1,0.5,0.2,0.6
	c0.1,0.2,0.2,0.4,0.3,0.5c0.1,0.2,0.2,0.3,0.4,0.4c0.1,0.1,0.3,0.3,0.5,0.4s0.3,0.2,0.5,0.3s0.4,0.1,0.6,0.2c0.2,0,0.4,0.1,0.6,0.1
	s0.4,0,0.6-0.1c0.2,0,0.4-0.1,0.6-0.2c0.2-0.1,0.4-0.2,0.5-0.3c0.2-0.1,0.3-0.2,0.5-0.4l0.4-0.4c0.1-0.2,0.2-0.3,0.3-0.5
	s0.1-0.4,0.2-0.6c0-0.2,0.1-0.4,0.1-0.6s0-0.4-0.1-0.6c0-0.2-0.1-0.4-0.2-0.6s-0.2-0.3-0.3-0.5s-0.2-0.3-0.4-0.4
	c-0.1-0.1-0.3-0.3-0.5-0.4c-0.2-0.1-0.3-0.2-0.5-0.3c-0.2-0.1-0.4-0.1-0.6-0.2C124.5,52.9,124.3,52.8,124.1,52.8z M16,53
	c-1.7,0-3,1.3-3,3s1.3,3,3,3h11c1.7,0,3-1.3,3-3s-1.3-3-3-3H16z M101,53c-1.7,0-3,1.3-3,3s1.3,3,3,3h11c1.7,0,3-1.3,3-3s-1.3-3-3-3
	H101z M4.1,53c-0.2,0-0.5,0-0.7,0.1c-0.2,0-0.4,0.1-0.6,0.2s-0.3,0.2-0.5,0.3S2,53.8,1.8,54C1.3,54.4,1,55.2,1,56s0.3,1.6,0.9,2.1
	c0.1,0.2,0.3,0.3,0.4,0.4c0.2,0.1,0.3,0.2,0.5,0.3s0.4,0.1,0.6,0.2H4c0.8,0,1.6-0.3,2.1-0.9l0.4-0.4c0.1-0.2,0.2-0.3,0.3-0.5
	s0.1-0.4,0.2-0.6V56c0-0.8-0.3-1.6-0.9-2.1C5.6,53.4,4.9,53.1,4.1,53z M32.2,71.5c-0.6,0-1.2,0.1-1.7,0.4l-8.7,5
	c-1.4,0.8-1.9,2.7-1.1,4.1c0.6,1,1.6,1.5,2.6,1.5c0.5,0,1-0.1,1.5-0.4l8.7-5c1.4-0.8,1.9-2.7,1.1-4.1C34,72.1,33.1,71.6,32.2,71.5z
	 M95.8,71.5c-1,0.1-1.9,0.6-2.4,1.5c-0.8,1.4-0.3,3.3,1.1,4.1l8.7,5c0.5,0.3,1,0.4,1.5,0.4c1,0,2-0.5,2.6-1.5
	c0.8-1.4,0.3-3.3-1.1-4.1l-8.7-5C97,71.6,96.4,71.5,95.8,71.5z M109,121.1c-0.8,0-1.5,0.3-2.1,0.8c-0.6,0.6-0.9,1.3-0.9,2.1
	s0.3,1.6,0.9,2.1c0.6,0.6,1.3,0.9,2.1,0.9s1.6-0.3,2.1-0.9c0.6-0.6,0.9-1.3,0.9-2.1s-0.3-1.6-0.9-2.1
	C110.5,121.4,109.8,121.1,109,121.1z"/>
</svg>
