<svg xmlns="http://www.w3.org/2000/svg" display="none" >
<symbol id="ticket" viewBox="0 0 1000 1000" enable-background="new 0 0 1000 1000">
    <g><path d="M387.7,703.9l150.6-150.6c8.3-8.3,8.2-21.6,0-29.9c-8.3-8.3-21.6-8.3-29.9,0L357.8,674c-8.3,8.3-8.3,21.6,0,29.9C366,712.1,379.4,712.2,387.7,703.9z M326,642.2l98-98c8.3-8.3,8.3-21.7,0-29.9c-8.2-8.3-21.6-8.3-29.9,0l-98,98c-8.3,8.3-8.2,21.6,0,29.9C304.4,650.5,317.8,650.5,326,642.2z M632,185.8c-8.3,8.3-8.3,21.7,0,29.9L784.3,368c8.2,8.3,21.6,8.3,29.9,0c8.3-8.3,8.3-21.7,0-29.9L661.9,185.8C653.7,177.6,640.3,177.6,632,185.8z M655.1,364.5c-8.2,8.3-8.2,21.7,0,29.9l36.4,36.4c8.3,8.3,21.7,8.3,29.9,0c8.3-8.2,8.3-21.6,0-29.9L685,364.5C676.7,356.2,663.4,356.2,655.1,364.5z M716.8,95c8.3-8.3,8.3-21.7,0-29.9l-39-39c-21.4-21.4-56.3-21.4-77.7,0L491.4,134.7c-6.6,6.6-8.1,16.7-3.7,25c5.9,11,4,24.1-4.6,32.8c-8.7,8.7-21.9,10.5-32.8,4.6c-8.2-4.4-18.4-2.9-25,3.7L26.1,600c-21.4,21.4-21.4,56.3,0,77.8l39,39c8.3,8.3,21.6,8.3,29.9,0c4.5-4.5,11.7-4.5,16.2,0c4.5,4.5,4.5,11.7,0,16.2c-8.3,8.3-8.2,21.6,0,29.9l39.9,39.9c8.3,8.3,21.6,8.3,29.9,0c4.5-4.5,11.7-4.5,16.2,0c4.5,4.5,4.5,11.7,0,16.2c-8.3,8.3-8.3,21.6,0,29.9l39.9,39.9c8.3,8.2,21.6,8.3,29.9,0c4.5-4.5,11.7-4.5,16.2,0c4.5,4.5,4.5,11.7,0,16.2c-8.3,8.3-8.3,21.7,0,29.9l39,39c21.4,21.4,56.3,21.4,77.8,0l399.2-399.2c6.6-6.6,8.1-16.7,3.7-25c-5.9-11-4-24.2,4.7-32.8c8.7-8.7,21.9-10.5,32.8-4.7c8.2,4.4,18.4,2.9,25-3.7L973.9,400c21.4-21.4,21.4-56.3,0-77.8l-39-39c-8.3-8.3-21.7-8.3-29.9,0c-4.5,4.5-11.7,4.5-16.2,0c-4.5-4.5-4.5-11.7,0-16.2c8.2-8.2,8.2-21.6,0-29.9l-39.9-39.9c-8.3-8.3-21.7-8.3-29.9,0c-4.5,4.5-11.7,4.5-16.2,0c-4.5-4.5-4.5-11.7,0-16.2c8.3-8.2,8.3-21.6,0-29.9l-39.9-39.9c-8.3-8.2-21.7-8.2-29.9,0c-4.5,4.5-11.7,4.5-16.2,0C712.3,106.8,712.3,99.5,716.8,95z M675,83.1c-7.7,19.4-3.8,42.3,11.9,58c15.7,15.7,38.6,19.6,58,11.9l16.1,16.1c-7.7,19.4-3.8,42.4,11.9,58c15.7,15.7,38.6,19.6,58,11.9l16.1,16.1c-7.7,19.4-3.8,42.3,11.9,58c15.7,15.7,38.6,19.6,58,11.9l27.1,27.1c5,5,5,13,0,17.9L845.2,469c-16.9-4.6-34.8-2.5-50.2,5.5l-24.1-24.1c-8.3-8.3-21.7-8.3-29.9,0c-8.3,8.2-8.3,21.6,0,29.9l24.1,24.1c-8,15.4-10.1,33.2-5.5,50.2L370.1,944c-5,5-13,5-17.9,0L325,916.9c7.7-19.4,3.8-42.3-11.9-58c-15.7-15.7-38.6-19.6-58-11.9L239,830.9c7.7-19.4,3.8-42.3-11.9-58c-15.6-15.7-38.6-19.6-58-11.9L153,744.9c7.7-19.4,3.8-42.3-11.9-58c-15.7-15.7-38.6-19.6-58-11.9L56,647.8c-5-4.9-5-13,0-17.9l389.5-389.5c16.9,4.6,34.8,2.5,50.2-5.5l24.1,24.1c8.3,8.3,21.7,8.3,29.9,0c8.3-8.2,8.3-21.6,0-29.9L525.5,205c8-15.4,10.1-33.2,5.5-50.2L629.9,56c4.9-4.9,13-4.9,17.9,0L675,83.1z M569.2,278.6c-8.3,8.2-8.3,21.6,0,29.9l36.4,36.4c8.2,8.2,21.6,8.2,29.9,0c8.3-8.3,8.3-21.7,0-29.9l-36.4-36.4C590.8,270.3,577.4,270.3,569.2,278.6z M435.6,317.6L152,601.2c-8.3,8.3-8.3,21.6,0,29.9L368.9,848c8.2,8.2,21.6,8.3,29.9,0l283.6-283.6c8.2-8.3,8.2-21.7,0-29.9L465.5,317.6C457.3,309.4,443.9,309.4,435.6,317.6z M637.5,549.4L383.9,803.1L196.9,616.1l253.7-253.6L637.5,549.4z"/></g>
</symbol>
</svg>